# xmcd
#
# Track frame offsets: 
#        150
#        7649
#        15752
#        33560
#        55930
#        69708
#        86736
#        98817
#        111245
#        131273
#        145042
#        160749
#        167903
#        188824
#        203813
#
# Disc length: 2942 seconds
#
# Revision: 3
# Processed by: cddbd v1.5.2PL0 Copyright (c) Steve Scherf et al.
# Submitted via: ExactAudioCopy v1.3
#
DISCID=b90b7c0f
DTITLE=Samy Deluxe - Der letzte Tanz
DYEAR=2009
DGENRE=HipHop
TTITLE0=Intro
TTITLE1=Neue Saison
TTITLE2=Der letzte Tanz
TTITLE3=So viele Fragen
TTITLE4=Katze aus dem Sack
TTITLE5=Hin und Her
TTITLE6=Truf is back
TTITLE7=Draussen aufm Dauf
TTITLE8=Hamburg 2009
TTITLE9=Sag mir was du von mir willst
TTITLE10=Samsimilias Rache
TTITLE11=Samsimilias letzte Worte
TTITLE12=Hussel und Flow
TTITLE13=Nie genug (feat. Ali A$)
TTITLE14=Outta hier
EXTD=Mixtape Samy Deluxe 2009
EXTT0=
EXTT1=
EXTT2=
EXTT3=
EXTT4=
EXTT5=
EXTT6=
EXTT7=
EXTT8=
EXTT9=
EXTT10=
EXTT11=
EXTT12=
EXTT13=
EXTT14=
PLAYORDER=
